<svg width="385" height="66" viewBox="0 0 385 66" fill="none" xmlns="http://www.w3.org/2000/svg">
<path d="M21.7636 22.7077H1.72057C1.23038 22.7077 0.794678 22.3264 0.794678 21.7817V1.73877C0.794678 1.24859 1.17592 0.812866 1.72057 0.812866H21.7636C22.2537 0.812866 22.6894 1.19413 22.6894 1.73877V21.7817C22.635 22.3264 22.2537 22.7077 21.7636 22.7077Z" fill="black"/>
<path d="M43.1137 44.0579H23.0162C22.5261 44.0579 22.0903 43.6766 22.0903 43.132V23.089C22.0903 22.5988 22.4716 22.1631 23.0162 22.1631H43.0592C43.5494 22.1631 43.9851 22.5443 43.9851 23.089V43.132C43.9851 43.6766 43.6039 44.0579 43.1137 44.0579Z" fill="black"/>
<path d="M64.4638 22.7077H44.4208C43.9306 22.7077 43.4949 22.3264 43.4949 21.7817V1.73877C43.4949 1.24859 43.8761 0.812866 44.4208 0.812866H64.4638C64.9539 0.812866 65.3897 1.19413 65.3897 1.73877V21.7817C65.3897 22.3264 64.9539 22.7077 64.4638 22.7077Z" fill="black"/>
<path d="M19.4215 42.4784H2.9732C2.37409 42.4784 1.88391 41.9882 1.88391 41.3891V24.8863C1.88391 24.2872 2.37409 23.797 2.9732 23.797H19.4215C20.0206 23.797 20.5108 24.2872 20.5108 24.8863V41.3346C20.5108 41.9882 20.0206 42.4784 19.4215 42.4784Z" fill="black"/>
<path d="M63.1566 42.4784H46.7083C46.1092 42.4784 45.619 41.9882 45.619 41.3891V24.8863C45.619 24.2872 46.1092 23.797 46.7083 23.797H63.1566C63.7557 23.797 64.2459 24.2872 64.2459 24.8863V41.3346C64.2459 41.9882 63.7557 42.4784 63.1566 42.4784Z" fill="black"/>
<path d="M21.7636 65.408H1.72057C1.23038 65.408 0.794678 65.0267 0.794678 64.4821V44.4391C0.794678 43.9489 1.17592 43.5132 1.72057 43.5132H21.7636C22.2537 43.5132 22.6894 43.8944 22.6894 44.4391V64.4821C22.635 65.0267 22.2537 65.408 21.7636 65.408Z" fill="black"/>
<path d="M64.4638 65.408H44.4208C43.9306 65.408 43.4949 65.0267 43.4949 64.4821V44.4391C43.4949 43.9489 43.8761 43.5132 44.4208 43.5132H64.4638C64.9539 43.5132 65.3897 43.8944 65.3897 44.4391V64.4821C65.3897 65.0267 64.9539 65.408 64.4638 65.408Z" fill="black"/>
<path d="M125.487 51.7897H116.132V36.6914H100.087V51.7897H90.6724V13.6589H100.087V28.5205H116.132V13.6589H125.487V51.7897Z" fill="black"/>
<path d="M144.553 65.4079H134.783L141.119 50.7832L129.277 23.1324H139.046L145.796 39.8295L153.02 23.1324H162.789L144.553 65.4079Z" fill="black"/>
<path d="M198.433 37.461C198.433 46.5201 192.039 52.6186 184.519 52.6186C180.848 52.6186 177.888 51.4936 175.638 49.4805V65.4078H166.519V23.1916H175.638V25.4416C177.828 23.4284 180.789 22.3035 184.519 22.3035C192.039 22.3627 198.433 28.5204 198.433 37.461ZM189.493 37.461C189.493 33.0795 186.591 30.0599 182.624 30.0599C178.953 30.0599 175.638 33.0795 175.638 37.461C175.638 41.9017 178.953 44.8622 182.624 44.8622C186.591 44.8622 189.493 41.9017 189.493 37.461Z" fill="black"/>
<path d="M231.117 39.8294H210.157C210.867 43.2635 213.236 45.3359 216.315 45.3359C218.446 45.3359 220.874 44.803 222.413 42.0202L230.466 43.678C228.038 49.7174 222.828 52.6186 216.315 52.6186C208.084 52.6186 201.216 46.5201 201.216 37.461C201.216 28.4612 208.025 22.3035 216.374 22.3035C224.426 22.3035 230.939 28.106 231.117 37.461V39.8294ZM210.334 34.2638H222.117C221.288 31.1849 218.979 29.7638 216.374 29.7638C213.828 29.7638 211.223 31.3625 210.334 34.2638Z" fill="black"/>
<path d="M256.814 23.0141L256.399 32.1323H254.741C248.347 32.1323 244.913 35.448 244.913 42.8492V51.7898H235.794V23.2509H244.913V28.6981C246.985 25.264 250.064 22.8364 254.741 22.8364C255.57 22.7772 256.162 22.8364 256.814 23.0141Z" fill="black"/>
<path d="M271.024 14.7839C271.024 17.6852 268.833 19.8759 265.754 19.8759C262.675 19.8759 260.544 17.6852 260.544 14.7839C260.544 12.0011 262.735 9.63269 265.754 9.63269C268.774 9.63269 271.024 12.0011 271.024 14.7839ZM261.136 51.7897V23.2508H270.254V51.7897H261.136Z" fill="black"/>
<path d="M306.905 37.4611C306.905 46.5202 299.74 52.5595 291.273 52.5595C282.629 52.5595 275.465 46.5202 275.465 37.4611C275.465 28.4613 282.629 22.422 291.273 22.422C299.74 22.4812 306.905 28.5205 306.905 37.4611ZM298.142 37.4611C298.142 33.0204 294.767 30.06 291.273 30.06C287.603 30.06 284.228 33.0204 284.228 37.4611C284.228 41.961 287.603 44.8623 291.273 44.8623C294.767 44.8623 298.142 41.961 298.142 37.4611Z" fill="black"/>
<path d="M340.595 34.2638V51.7897H331.536V36.2177C331.536 32.8427 329.523 30.5928 326.621 30.5928C323.01 30.5928 320.701 33.0204 320.701 38.586V51.7897H311.582V23.2508H320.701V25.9745C322.891 23.7245 325.852 22.3627 329.463 22.3627C336.154 22.3627 340.595 27.0402 340.595 34.2638Z" fill="black"/>
<path fill-rule="evenodd" clip-rule="evenodd" d="M356.092 13.5405H346.854L356.534 32.6652L354.52 32.6652L345.036 51.7305H354.077L363.709 32.6652L364.443 32.6652H365.527L366.262 32.6652L375.893 51.7305H384.935L375.451 32.6652L373.436 32.6652L383.116 13.5405H373.878L364.985 31.567L356.092 13.5405Z" fill="black"/>
</svg>
