<svg width="385" height="66" viewBox="0 0 385 66" fill="none" xmlns="http://www.w3.org/2000/svg">
<path d="M21.7636 22.4154H1.72057C1.23038 22.4154 0.794678 22.0342 0.794678 21.4895V1.44654C0.794678 0.956354 1.17592 0.52063 1.72057 0.52063H21.7636C22.2537 0.52063 22.6894 0.901889 22.6894 1.44654V21.4895C22.635 22.0342 22.2537 22.4154 21.7636 22.4154Z" fill="white"/>
<path d="M43.1137 43.7656H23.0162C22.5261 43.7656 22.0903 43.3844 22.0903 42.8397V22.7968C22.0903 22.3066 22.4716 21.8708 23.0162 21.8708H43.0592C43.5494 21.8708 43.9851 22.2521 43.9851 22.7968V42.8397C43.9851 43.3844 43.6039 43.7656 43.1137 43.7656Z" fill="white"/>
<path d="M64.4638 22.4154H44.4208C43.9306 22.4154 43.4949 22.0342 43.4949 21.4895V1.44654C43.4949 0.956354 43.8761 0.52063 44.4208 0.52063H64.4638C64.9539 0.52063 65.3897 0.901889 65.3897 1.44654V21.4895C65.3897 22.0342 64.9539 22.4154 64.4638 22.4154Z" fill="white"/>
<path d="M19.4215 42.1861H2.9732C2.37409 42.1861 1.88391 41.6959 1.88391 41.0968V24.5941C1.88391 23.9949 2.37409 23.5048 2.9732 23.5048H19.4215C20.0206 23.5048 20.5108 23.9949 20.5108 24.5941V41.0424C20.5108 41.696 20.0206 42.1861 19.4215 42.1861Z" fill="white"/>
<path d="M63.1566 42.1861H46.7083C46.1092 42.1861 45.619 41.6959 45.619 41.0968V24.5941C45.619 23.9949 46.1092 23.5048 46.7083 23.5048H63.1566C63.7557 23.5048 64.2459 23.9949 64.2459 24.5941V41.0424C64.2459 41.696 63.7557 42.1861 63.1566 42.1861Z" fill="white"/>
<path d="M21.7636 65.1157H1.72057C1.23038 65.1157 0.794678 64.7345 0.794678 64.1898V44.1469C0.794678 43.6567 1.17592 43.2209 1.72057 43.2209H21.7636C22.2537 43.2209 22.6894 43.6022 22.6894 44.1469V64.1898C22.635 64.7345 22.2537 65.1157 21.7636 65.1157Z" fill="white"/>
<path d="M64.4638 65.1157H44.4208C43.9306 65.1157 43.4949 64.7345 43.4949 64.1898V44.1469C43.4949 43.6567 43.8761 43.2209 44.4208 43.2209H64.4638C64.9539 43.2209 65.3897 43.6022 65.3897 44.1469V64.1898C65.3897 64.7345 64.9539 65.1157 64.4638 65.1157Z" fill="white"/>
<path d="M125.487 51.4975H116.132V36.3991H100.087V51.4975H90.6724V13.3667H100.087V28.2283H116.132V13.3667H125.487V51.4975Z" fill="white"/>
<path d="M144.553 65.1157H134.783L141.119 50.491L129.277 22.8402H139.046L145.796 39.5372L153.02 22.8402H162.789L144.553 65.1157Z" fill="white"/>
<path d="M198.433 37.1688C198.433 46.2278 192.039 52.3264 184.519 52.3264C180.848 52.3264 177.888 51.2014 175.638 49.1883V65.1156H166.519V22.8994H175.638V25.1493C177.828 23.1362 180.789 22.0112 184.519 22.0112C192.039 22.0704 198.433 28.2282 198.433 37.1688ZM189.493 37.1688C189.493 32.7873 186.591 29.7676 182.624 29.7676C178.953 29.7676 175.638 32.7873 175.638 37.1688C175.638 41.6095 178.953 44.57 182.624 44.57C186.591 44.57 189.493 41.6095 189.493 37.1688Z" fill="white"/>
<path d="M231.117 39.5372H210.157C210.867 42.9713 213.236 45.0436 216.315 45.0436C218.446 45.0436 220.874 44.5108 222.413 41.7279L230.466 43.3858C228.038 49.4251 222.828 52.3264 216.315 52.3264C208.084 52.3264 201.216 46.2278 201.216 37.1688C201.216 28.169 208.025 22.0112 216.374 22.0112C224.426 22.0112 230.939 27.8137 231.117 37.1688V39.5372ZM210.334 33.9715H222.117C221.288 30.8926 218.979 29.4716 216.374 29.4716C213.828 29.4716 211.223 31.0703 210.334 33.9715Z" fill="white"/>
<path d="M256.814 22.7218L256.399 31.84H254.741C248.347 31.84 244.913 35.1558 244.913 42.5569V51.4975H235.794V22.9586H244.913V28.4059C246.985 24.9718 250.064 22.5442 254.741 22.5442C255.57 22.485 256.162 22.5442 256.814 22.7218Z" fill="white"/>
<path d="M271.024 14.4917C271.024 17.3929 268.833 19.5837 265.754 19.5837C262.675 19.5837 260.544 17.3929 260.544 14.4917C260.544 11.7088 262.735 9.34045 265.754 9.34045C268.774 9.34045 271.024 11.7088 271.024 14.4917ZM261.136 51.4975V22.9586H270.254V51.4975H261.136Z" fill="white"/>
<path d="M306.905 37.1689C306.905 46.2279 299.74 52.2673 291.273 52.2673C282.629 52.2673 275.465 46.2279 275.465 37.1689C275.465 28.1691 282.629 22.1298 291.273 22.1298C299.74 22.189 306.905 28.2283 306.905 37.1689ZM298.142 37.1689C298.142 32.7282 294.767 29.7677 291.273 29.7677C287.603 29.7677 284.228 32.7282 284.228 37.1689C284.228 41.6688 287.603 44.5701 291.273 44.5701C294.767 44.5701 298.142 41.6688 298.142 37.1689Z" fill="white"/>
<path d="M340.595 33.9715V51.4975H331.536V35.9254C331.536 32.5505 329.523 30.3005 326.621 30.3005C323.01 30.3005 320.701 32.7281 320.701 38.2938V51.4975H311.582V22.9586H320.701V25.6822C322.891 23.4323 325.852 22.0704 329.463 22.0704C336.154 22.0704 340.595 26.748 340.595 33.9715Z" fill="white"/>
<path fill-rule="evenodd" clip-rule="evenodd" d="M356.092 13.2483H346.854L356.534 32.3729L354.52 32.3729L345.036 51.4383H354.077L363.709 32.3729L364.443 32.3729H365.527L366.262 32.3729L375.893 51.4383H384.935L375.451 32.3729L373.436 32.3729L383.116 13.2483H373.878L364.985 31.2748L356.092 13.2483Z" fill="white"/>
</svg>
