<svg width="66" height="65" viewBox="0 0 66 65" fill="none" xmlns="http://www.w3.org/2000/svg">
<path fill-rule="evenodd" clip-rule="evenodd" d="M1.6671 22.2786H21.7101C21.8915 22.2786 22.058 22.2264 22.1985 22.1329C22.0951 22.2851 22.0369 22.4684 22.0369 22.6599V42.7029C22.0369 42.8971 22.0923 43.0705 22.1858 43.2133C22.0445 43.1302 21.8806 43.0841 21.7101 43.0841H1.6671C1.12245 43.0841 0.741211 43.5198 0.741211 44.01V64.053C0.741211 64.5976 1.17692 64.9789 1.6671 64.9789H21.7101C22.2003 64.9789 22.5815 64.5976 22.636 64.053V44.01C22.636 43.8158 22.5806 43.6423 22.487 43.4996C22.6283 43.5827 22.7923 43.6288 22.9628 43.6288H43.0602C43.5504 43.6288 43.9316 43.2475 43.9316 42.7029V22.6599C43.9316 22.1153 43.4959 21.734 43.0057 21.734H22.9628C22.7664 21.734 22.5913 21.7907 22.4476 21.8861C22.5488 21.7391 22.6155 21.5574 22.636 21.3527V1.30969C22.636 0.765048 22.2003 0.383789 21.7101 0.383789H1.6671C1.12245 0.383789 0.741211 0.819513 0.741211 1.30969V21.3527C0.741211 21.8973 1.17692 22.2786 1.6671 22.2786ZM64.4103 22.2786H44.3673C43.8771 22.2786 43.4414 21.8973 43.4414 21.3527V1.30969C43.4414 0.819513 43.8227 0.383789 44.3673 0.383789H64.4103C64.9005 0.383789 65.3362 0.765048 65.3362 1.30969V21.3527C65.3362 21.8973 64.9005 22.2786 64.4103 22.2786ZM64.4103 64.9789H44.3673C43.8771 64.9789 43.4414 64.5976 43.4414 64.053V44.01C43.4414 43.5198 43.8227 43.0841 44.3673 43.0841H64.4103C64.9005 43.0841 65.3362 43.4654 65.3362 44.01V64.053C65.3362 64.5976 64.9005 64.9789 64.4103 64.9789ZM19.368 42.0493H2.91974C2.32063 42.0493 1.83044 41.5591 1.83044 40.96V24.4572C1.83044 23.8581 2.32063 23.3679 2.91974 23.3679H19.368C19.9672 23.3679 20.4573 23.8581 20.4573 24.4572V40.9055C20.4573 41.5591 19.9672 42.0493 19.368 42.0493ZM63.1032 42.0493H46.6548C46.0557 42.0493 45.5656 41.5591 45.5656 40.96V24.4572C45.5656 23.8581 46.0557 23.3679 46.6548 23.3679H63.1032C63.7023 23.3679 64.1925 23.8581 64.1925 24.4572V40.9055C64.1925 41.5591 63.7023 42.0493 63.1032 42.0493Z" fill="url(#paint0_linear_250_8429)"/>
<defs>
<linearGradient id="paint0_linear_250_8429" x1="33.0387" y1="0.383789" x2="33.0387" y2="64.9789" gradientUnits="userSpaceOnUse">
<stop stop-color="#FDDF27"/>
<stop offset="1" stop-color="#AEF403"/>
</linearGradient>
</defs>
</svg>
